{
  "accessors": [
    {
      "bufferView": 2,
      "componentType": 5126,
      "count": 382,
      "max": [
        1.409766674041748,
        4.646095275878906,
        3.0033693313598633
      ],
      "min": [
        -1.409766674041748,
        -3.088022232055664,
        0.6593626737594604
      ],
      "type": "VEC3"
    },
    {
      "bufferView": 2,
      "byteOffset": 4584,
      "componentType": 5126,
      "count": 382,
      "max": [
        1.0,
        0.9998971223831177,
        1.0
      ],
      "min": [
        -1.0,
        -0.9997839331626892,
        -1.0
      ],
      "type": "VEC3"
    },
    {
      "bufferView": 1,
      "componentType": 5126,
      "count": 382,
      "max": [
        1.0,
        1.0
      ],
      "min": [
        0.0,
        0.0
      ],
      "type": "VEC2"
    },
    {
      "bufferView": 0,
      "componentType": 5125,
      "count": 696,
      "type": "SCALAR"
    },
    {
      "bufferView": 2,
      "byteOffset": 9168,
      "componentType": 5126,
      "count": 318,
      "max": [
        1.2875770330429077,
        4.535095691680908,
        1.4867823123931885
      ],
      "min": [
        -1.2875770330429077,
        -3.0,
        -0.4403030276298523
      ],
      "type": "VEC3"
    },
    {
      "bufferView": 2,
      "byteOffset": 12984,
      "componentType": 5126,
      "count": 318,
      "max": [
        1.0,
        1.0,
        0.04103194549679756
      ],
      "min": [
        -1.0,
        -1.0,
        -1.0
      ],
      "type": "VEC3"
    },
    {
      "bufferView": 1,
      "byteOffset": 3056,
      "componentType": 5126,
      "count": 318,
      "max": [
        0.6056910753250122,
        1.0
      ],
      "min": [
        0.125,
        0.0
      ],
      "type": "VEC2"
    },
    {
      "bufferView": 0,
      "byteOffset": 2784,
      "componentType": 5125,
      "count": 540,
      "type": "SCALAR"
    },
    {
      "bufferView": 2,
      "byteOffset": 16800,
      "componentType": 5126,
      "count": 2013,
      "max": [
        1.3306820392608643,
        4.404784679412842,
        2.693641424179077
      ],
      "min": [
        -1.3306820392608643,
        -2.847676992416382,
        0.42332762479782104
      ],
      "type": "VEC3"
    },
    {
      "bufferView": 2,
      "byteOffset": 40956,
      "componentType": 5126,
      "count": 2013,
      "max": [
        1.0,
        1.0,
        1.0
      ],
      "min": [
        -1.0,
        -1.0,
        -1.0
      ],
      "type": "VEC3"
    },
    {
      "bufferView": 1,
      "byteOffset": 5600,
      "componentType": 5126,
      "count": 2013,
      "max": [
        1.0,
        1.0
      ],
      "min": [
        0.0,
        0.0
      ],
      "type": "VEC2"
    },
    {
      "bufferView": 0,
      "byteOffset": 4944,
      "componentType": 5125,
      "count": 5196,
      "type": "SCALAR"
    },
    {
      "bufferView": 2,
      "byteOffset": 65112,
      "componentType": 5126,
      "count": 30,
      "max": [
        1.0218641757965088,
        4.287841796875,
        0.86521977186203
      ],
      "min": [
        -1.0218641757965088,
        -2.720088005065918,
        0.5502218008041382
      ],
      "type": "VEC3"
    },
    {
      "bufferView": 2,
      "byteOffset": 65472,
      "componentType": 5126,
      "count": 30,
      "max": [
        0.0,
        0.05841878801584244,
        1.0
      ],
      "min": [
        -4.373087225673089e-09,
        -0.1686486452817917,
        0.9856762290000916
      ],
      "type": "VEC3"
    },
    {
      "bufferView": 1,
      "byteOffset": 21704,
      "componentType": 5126,
      "count": 30,
      "max": [
        0.8492042422294617,
        0.7389475703239441
      ],
      "min": [
        0.6507958173751831,
        0.5001692771911621
      ],
      "type": "VEC2"
    },
    {
      "bufferView": 0,
      "byteOffset": 25728,
      "componentType": 5125,
      "count": 48,
      "type": "SCALAR"
    },
    {
      "bufferView": 2,
      "byteOffset": 65832,
      "componentType": 5126,
      "count": 1585,
      "max": [
        0.6779794692993164,
        3.4820609092712402,
        4.640058994293213
      ],
      "min": [
        -0.6779794692993164,
        0.6857904195785522,
        0.5001200437545776
      ],
      "type": "VEC3"
    },
    {
      "bufferView": 2,
      "byteOffset": 84852,
      "componentType": 5126,
      "count": 1585,
      "max": [
        1.0,
        1.0,
        1.0
      ],
      "min": [
        -1.0,
        -1.0,
        -1.0
      ],
      "type": "VEC3"
    },
    {
      "bufferView": 1,
      "byteOffset": 21944,
      "componentType": 5126,
      "count": 1585,
      "max": [
        0.8750000596046448,
        1.0
      ],
      "min": [
        0.125,
        0.0
      ],
      "type": "VEC2"
    },
    {
      "bufferView": 0,
      "byteOffset": 25920,
      "componentType": 5125,
      "count": 2526,
      "type": "SCALAR"
    },
    {
      "bufferView": 2,
      "byteOffset": 103872,
      "componentType": 5126,
      "count": 100,
      "max": [
        0.6075390577316284,
        3.3797435760498047,
        2.4166300296783447
      ],
      "min": [
        -0.6075390577316284,
        1.5121214389801025,
        1.5611317157745361
      ],
      "type": "VEC3"
    },
    {
      "bufferView": 2,
      "byteOffset": 105072,
      "componentType": 5126,
      "count": 100,
      "max": [
        1.0,
        0.9177806973457336,
        0.27656397223472595
      ],
      "min": [
        -1.0,
        -0.19722014665603638,
        -0.3970876634120941
      ],
      "type": "VEC3"
    },
    {
      "bufferView": 1,
      "byteOffset": 34624,
      "componentType": 5126,
      "count": 100,
      "max": [
        0.8583971858024597,
        0.6786954998970032
      ],
      "min": [
        0.5309916138648987,
        0.07130449265241623
      ],
      "type": "VEC2"
    },
    {
      "bufferView": 0,
      "byteOffset": 36024,
      "componentType": 5125,
      "count": 150,
      "type": "SCALAR"
    },
    {
      "bufferView": 2,
      "byteOffset": 106272,
      "componentType": 5126,
      "count": 144,
      "max": [
        0.862180233001709,
        -0.9398056864738464,
        3.095108985900879
      ],
      "min": [
        -0.48046183586120605,
        -2.75243878364563,
        0.48197126388549805
      ],
      "type": "VEC3"
    },
    {
      "bufferView": 2,
      "byteOffset": 108000,
      "componentType": 5126,
      "count": 144,
      "max": [
        1.0,
        1.0,
        1.0
      ],
      "min": [
        -1.0,
        -1.0,
        -1.0
      ],
      "type": "VEC3"
    },
    {
      "bufferView": 1,
      "byteOffset": 35424,
      "componentType": 5126,
      "count": 144,
      "max": [
        0.875,
        1.0
      ],
      "min": [
        0.125,
        0.0
      ],
      "type": "VEC2"
    },
    {
      "bufferView": 0,
      "byteOffset": 36624,
      "componentType": 5125,
      "count": 216,
      "type": "SCALAR"
    },
    {
      "bufferView": 2,
      "byteOffset": 109728,
      "componentType": 5126,
      "count": 96,
      "max": [
        0.03144543617963791,
        -0.891839325428009,
        3.310608148574829
      ],
      "min": [
        -0.8632711172103882,
        -2.676617383956909,
        0.4819713830947876
      ],
      "type": "VEC3"
    },
    {
      "bufferView": 2,
      "byteOffset": 110880,
      "componentType": 5126,
      "count": 96,
      "max": [
        1.0,
        1.0,
        1.0
      ],
      "min": [
        -1.0,
        -1.0,
        -1.0
      ],
      "type": "VEC3"
    },
    {
      "bufferView": 1,
      "byteOffset": 36576,
      "componentType": 5126,
      "count": 96,
      "max": [
        0.875,
        1.0
      ],
      "min": [
        0.125,
        0.0
      ],
      "type": "VEC2"
    },
    {
      "bufferView": 0,
      "byteOffset": 37488,
      "componentType": 5125,
      "count": 144,
      "type": "SCALAR"
    },
    {
      "bufferView": 2,
      "byteOffset": 112032,
      "componentType": 5126,
      "count": 1044,
      "max": [
        1.6370429992675781,
        -0.9356327652931213,
        2.8491475582122803
      ],
      "min": [
        -1.6610251665115356,
        -2.9996633529663086,
        -0.3613472282886505
      ],
      "type": "VEC3"
    },
    {
      "bufferView": 2,
      "byteOffset": 124560,
      "componentType": 5126,
      "count": 1044,
      "max": [
        1.0,
        1.0,
        0.998932421207428
      ],
      "min": [
        -1.0,
        -1.0,
        -1.0
      ],
      "type": "VEC3"
    },
    {
      "bufferView": 1,
      "byteOffset": 37344,
      "componentType": 5126,
      "count": 1044,
      "max": [
        1.0,
        1.0
      ],
      "min": [
        0.0,
        0.0
      ],
      "type": "VEC2"
    },
    {
      "bufferView": 0,
      "byteOffset": 38064,
      "componentType": 5125,
      "count": 1596,
      "type": "SCALAR"
    },
    {
      "bufferView": 2,
      "byteOffset": 137088,
      "componentType": 5126,
      "count": 88,
      "max": [
        0.3005099296569824,
        0.990623414516449,
        2.0443429946899414
      ],
      "min": [
        -0.3005099296569824,
        0.8958514332771301,
        0.6322646737098694
      ],
      "type": "VEC3"
    },
    {
      "bufferView": 2,
      "byteOffset": 138144,
      "componentType": 5126,
      "count": 88,
      "max": [
        1.0,
        1.0,
        1.0
      ],
      "min": [
        -1.0,
        -1.0,
        -1.0
      ],
      "type": "VEC3"
    },
    {
      "bufferView": 1,
      "byteOffset": 45696,
      "componentType": 5126,
      "count": 88,
      "max": [
        0.875,
        1.0
      ],
      "min": [
        0.125,
        0.0
      ],
      "type": "VEC2"
    },
    {
      "bufferView": 0,
      "byteOffset": 44448,
      "componentType": 5125,
      "count": 132,
      "type": "SCALAR"
    },
    {
      "bufferView": 2,
      "byteOffset": 139200,
      "componentType": 5126,
      "count": 1528,
      "max": [
        0.033905208110809326,
        1.0983352661132813,
        3.0223779678344727
      ],
      "min": [
        -0.5240447521209717,
        -2.689364194869995,
        0.6158984899520874
      ],
      "type": "VEC3"
    },
    {
      "bufferView": 2,
      "byteOffset": 157536,
      "componentType": 5126,
      "count": 1528,
      "max": [
        1.0,
        0.9841037392616272,
        0.9841039776802063
      ],
      "min": [
        -1.0,
        -0.9841030836105347,
        -0.9841039776802063
      ],
      "type": "VEC3"
    },
    {
      "bufferView": 1,
      "byteOffset": 46400,
      "componentType": 5126,
      "count": 1528,
      "max": [
        1.0,
        1.0
      ],
      "min": [
        0.0,
        0.0
      ],
      "type": "VEC2"
    },
    {
      "bufferView": 0,
      "byteOffset": 44976,
      "componentType": 5125,
      "count": 2292,
      "type": "SCALAR"
    },
    {
      "bufferView": 2,
      "byteOffset": 175872,
      "componentType": 5126,
      "count": 676,
      "max": [
        1.1818560361862183,
        1.3846020698547363,
        3.3033294677734375
      ],
      "min": [
        -1.1996136903762817,
        -1.8823351860046387,
        0.6522537469863892
      ],
      "type": "VEC3"
    },
    {
      "bufferView": 2,
      "byteOffset": 183984,
      "componentType": 5126,
      "count": 676,
      "max": [
        1.0,
        1.0,
        1.0
      ],
      "min": [
        -1.0,
        -1.0,
        -1.0
      ],
      "type": "VEC3"
    },
    {
      "bufferView": 1,
      "byteOffset": 58624,
      "componentType": 5126,
      "count": 676,
      "max": [
        1.0,
        1.0
      ],
      "min": [
        0.0,
        0.0
      ],
      "type": "VEC2"
    },
    {
      "bufferView": 0,
      "byteOffset": 54144,
      "componentType": 5125,
      "count": 1128,
      "type": "SCALAR"
    }
  ],
  "asset": {
    "extras": {
      "author": "PerfectioNH (https://sketchfab.com/PerfectioNH3)",
      "license": "SKETCHFAB Standard (https://sketchfab.com/licenses)",
      "source": "https://sketchfab.com/3d-models/low-poly-fishing-boat-0f7848ef95fd4fadbb5c43ebfe9ede45",
      "title": "Low Poly Fishing Boat"
    },
    "generator": "Sketchfab-16.54.0",
    "version": "2.0"
  },
  "bufferViews": [
    {
      "buffer": 0,
      "byteLength": 58656,
      "name": "floatBufferViews",
      "target": 34963
    },
    {
      "buffer": 0,
      "byteLength": 64032,
      "byteOffset": 58656,
      "byteStride": 8,
      "name": "floatBufferViews",
      "target": 34962
    },
    {
      "buffer": 0,
      "byteLength": 192096,
      "byteOffset": 122688,
      "byteStride": 12,
      "name": "floatBufferViews",
      "target": 34962
    }
  ],
  "buffers": [
    {
      "byteLength": 314784,
      "uri": "scene.bin"
    }
  ],
  "materials": [
    {
      "doubleSided": true,
      "name": "Material.001",
      "pbrMetallicRoughness": {
        "baseColorFactor": [
          0.156265,
          0.156265,
          0.156265,
          1.0
        ],
        "metallicFactor": 0.0
      }
    },
    {
      "doubleSided": true,
      "name": "Material",
      "pbrMetallicRoughness": {
        "baseColorFactor": [
          0.800165,
          0.0202415,
          0.0337175,
          1.0
        ],
        "metallicFactor": 0.0
      }
    },
    {
      "doubleSided": true,
      "name": "Material.004",
      "pbrMetallicRoughness": {
        "baseColorFactor": [
          0.341561,
          0.174405,
          0.0770505,
          1.0
        ],
        "metallicFactor": 0.0
      }
    },
    {
      "doubleSided": true,
      "name": "Material.011",
      "pbrMetallicRoughness": {
        "baseColorFactor": [
          0.156276,
          0.138936,
          0.101641,
          1.0
        ],
        "metallicFactor": 0.0
      }
    },
    {
      "doubleSided": true,
      "name": "Material.002",
      "pbrMetallicRoughness": {
        "baseColorFactor": [
          0.8,
          0.8,
          0.8,
          1.0
        ],
        "metallicFactor": 0.0
      }
    },
    {
      "doubleSided": true,
      "name": "Material.003",
      "pbrMetallicRoughness": {
        "baseColorFactor": [
          0.026795,
          0.0393624,
          0.071006,
          1.0
        ],
        "metallicFactor": 0.0,
        "roughnessFactor": 0.9876749473422506
      }
    },
    {
      "doubleSided": true,
      "name": "Material.007",
      "pbrMetallicRoughness": {
        "baseColorFactor": [
          0.422518,
          0.278793,
          0.15025,
          1.0
        ],
        "metallicFactor": 0.0,
        "roughnessFactor": 0.9329027262544329
      }
    },
    {
      "doubleSided": true,
      "name": "Material.008",
      "pbrMetallicRoughness": {
        "baseColorFactor": [
          0.0708651,
          0.120107,
          0.183817,
          1.0
        ],
        "metallicFactor": 0.0,
        "roughnessFactor": 0.9744555990225904
      }
    },
    {
      "doubleSided": true,
      "name": "Material.010",
      "pbrMetallicRoughness": {
        "baseColorFactor": [
          0.270446,
          0.080156,
          0.0519905,
          1.0
        ],
        "metallicFactor": 0.0
      }
    },
    {
      "doubleSided": true,
      "name": "Material.006",
      "pbrMetallicRoughness": {
        "baseColorFactor": [
          0.119727,
          0.0864332,
          0.0629016,
          1.0
        ],
        "metallicFactor": 0.0
      }
    },
    {
      "doubleSided": true,
      "name": "Material.009",
      "pbrMetallicRoughness": {
        "baseColorFactor": [
          0.487594,
          0.467698,
          0.38129,
          1.0
        ],
        "metallicFactor": 0.0,
        "roughnessFactor": 0.895868722085833
      }
    },
    {
      "doubleSided": true,
      "name": "Material.005",
      "pbrMetallicRoughness": {
        "baseColorFactor": [
          0.12736,
          0.067329,
          0.0314757,
          1.0
        ],
        "metallicFactor": 0.0
      }
    }
  ],
  "meshes": [
    {
      "name": "Cube_Material.001_0",
      "primitives": [
        {
          "attributes": {
            "NORMAL": 1,
            "POSITION": 0,
            "TEXCOORD_0": 2
          },
          "indices": 3,
          "material": 0,
          "mode": 4
        }
      ]
    },
    {
      "name": "Cube_Material_0",
      "primitives": [
        {
          "attributes": {
            "NORMAL": 5,
            "POSITION": 4,
            "TEXCOORD_0": 6
          },
          "indices": 7,
          "material": 1,
          "mode": 4
        }
      ]
    },
    {
      "name": "Cube_Material.004_0",
      "primitives": [
        {
          "attributes": {
            "NORMAL": 9,
            "POSITION": 8,
            "TEXCOORD_0": 10
          },
          "indices": 11,
          "material": 2,
          "mode": 4
        }
      ]
    },
    {
      "name": "Cube_Material.011_0",
      "primitives": [
        {
          "attributes": {
            "NORMAL": 13,
            "POSITION": 12,
            "TEXCOORD_0": 14
          },
          "indices": 15,
          "material": 3,
          "mode": 4
        }
      ]
    },
    {
      "name": "Cube_Material.002_0",
      "primitives": [
        {
          "attributes": {
            "NORMAL": 17,
            "POSITION": 16,
            "TEXCOORD_0": 18
          },
          "indices": 19,
          "material": 4,
          "mode": 4
        }
      ]
    },
    {
      "name": "Cube_Material.003_0",
      "primitives": [
        {
          "attributes": {
            "NORMAL": 21,
            "POSITION": 20,
            "TEXCOORD_0": 22
          },
          "indices": 23,
          "material": 5,
          "mode": 4
        }
      ]
    },
    {
      "name": "Cube_Material.007_0",
      "primitives": [
        {
          "attributes": {
            "NORMAL": 25,
            "POSITION": 24,
            "TEXCOORD_0": 26
          },
          "indices": 27,
          "material": 6,
          "mode": 4
        }
      ]
    },
    {
      "name": "Cube_Material.008_0",
      "primitives": [
        {
          "attributes": {
            "NORMAL": 29,
            "POSITION": 28,
            "TEXCOORD_0": 30
          },
          "indices": 31,
          "material": 7,
          "mode": 4
        }
      ]
    },
    {
      "name": "Cube_Material.010_0",
      "primitives": [
        {
          "attributes": {
            "NORMAL": 33,
            "POSITION": 32,
            "TEXCOORD_0": 34
          },
          "indices": 35,
          "material": 8,
          "mode": 4
        }
      ]
    },
    {
      "name": "Cube_Material.006_0",
      "primitives": [
        {
          "attributes": {
            "NORMAL": 37,
            "POSITION": 36,
            "TEXCOORD_0": 38
          },
          "indices": 39,
          "material": 9,
          "mode": 4
        }
      ]
    },
    {
      "name": "Cube_Material.009_0",
      "primitives": [
        {
          "attributes": {
            "NORMAL": 41,
            "POSITION": 40,
            "TEXCOORD_0": 42
          },
          "indices": 43,
          "material": 10,
          "mode": 4
        }
      ]
    },
    {
      "name": "Cube_Material.005_0",
      "primitives": [
        {
          "attributes": {
            "NORMAL": 45,
            "POSITION": 44,
            "TEXCOORD_0": 46
          },
          "indices": 47,
          "material": 11,
          "mode": 4
        }
      ]
    }
  ],
  "nodes": [
    {
      "children": [
        1
      ],
      "matrix": [
        1.0,
        0.0,
        0.0,
        0.0,
        0.0,
        2.220446049250313e-16,
        -1.0,
        0.0,
        0.0,
        1.0,
        2.220446049250313e-16,
        0.0,
        0.0,
        0.0,
        0.0,
        1.0
      ],
      "name": "Sketchfab_model"
    },
    {
      "children": [
        2
      ],
      "matrix": [
        0.009999999776482582,
        0.0,
        0.0,
        0.0,
        0.0,
        0.0,
        0.009999999776482582,
        0.0,
        0.0,
        -0.009999999776482582,
        0.0,
        0.0,
        0.0,
        0.0,
        0.0,
        1.0
      ],
      "name": "eb383d59ba9c44fdb583eb029b192356.fbx"
    },
    {
      "children": [
        3
      ],
      "name": "RootNode"
    },
    {
      "children": [
        4,
        5,
        6,
        7,
        8,
        9,
        10,
        11,
        12,
        13,
        14,
        15
      ],
      "matrix": [
        100.0,
        0.0,
        0.0,
        0.0,
        -0.0,
        -1.629206793918314e-05,
        -99.99999999999868,
        0.0,
        0.0,
        99.99999999999868,
        -1.629206793918314e-05,
        0.0,
        -6.788255214691162,
        63.21849060058594,
        3.684642791748047,
        1.0
      ],
      "name": "Cube"
    },
    {
      "mesh": 0,
      "name": "Cube_Material.001_0"
    },
    {
      "mesh": 1,
      "name": "Cube_Material_0"
    },
    {
      "mesh": 2,
      "name": "Cube_Material.004_0"
    },
    {
      "mesh": 3,
      "name": "Cube_Material.011_0"
    },
    {
      "mesh": 4,
      "name": "Cube_Material.002_0"
    },
    {
      "mesh": 5,
      "name": "Cube_Material.003_0"
    },
    {
      "mesh": 6,
      "name": "Cube_Material.007_0"
    },
    {
      "mesh": 7,
      "name": "Cube_Material.008_0"
    },
    {
      "mesh": 8,
      "name": "Cube_Material.010_0"
    },
    {
      "mesh": 9,
      "name": "Cube_Material.006_0"
    },
    {
      "mesh": 10,
      "name": "Cube_Material.009_0"
    },
    {
      "mesh": 11,
      "name": "Cube_Material.005_0"
    }
  ],
  "scene": 0,
  "scenes": [
    {
      "name": "Sketchfab_Scene",
      "nodes": [
        0
      ]
    }
  ]
}
